#!OML:ASF F:\VICON\USERDATA\INSTALL\rory3\rory3.ASF
:FULLY-SPECIFIED
:DEGREES
90
root 1.4573425998511902 17.941897401462402 53.47118014417669 -3.626450130593998 2.4226299494031895 -5.34340740169749
lfemur -17.472456630389683 -2.5933833127174752 -16.708312104967263
ltibia 36.52667012214931
lfoot -9.162727780145072 0.6578597312406465
ltoes -17.801066334672374
rfemur -7.107881911811682 0.7937202465784052 28.753513094678336
rtibia 38.16846014052843
rfoot -5.047565252692328 -10.441975022856052
rtoes 1.6593185656621245
lowerback 10.091953608327087 -0.051725515139197514 2.81919614200027
upperback -0.3626158399847228 1.0916588229797402 1.8252976356538406
thorax -5.959784752960895 0.5983303280805505 -0.24055804760397304
lowerneck -16.118557479267245 -3.939220862365203 -1.617602365594514
upperneck 21.785606057262747 -5.555724691502421 1.6148940022253528
head 9.773745645558877 -2.481192493691027 0.07322244652547474
lclavicle -2.4851777262991355e-15 -2.7281141167718586e-15
lhumerus -31.386933195180152 3.34817162055818 82.55523532478891
lradius 25.80889435306793
lwrist 11.699516696925135
lhand -29.946345293211223 17.770419724973813
lfingers nan
lthumb -2.916881976435635 48.43385265526592
rclavicle -2.604504110024789e-15 -2.8083055280599083e-15
rhumerus -28.74457018322356 -18.932491766027898 -74.83181534368511
rradius 33.25407703875403
rwrist 0.6027734311427597
rhand -17.512264155840136 22.33921041496975
rfingers nan
rthumb 8.676005334593839 -7.528166161621897
91
root 1.4424460443128853 17.9483646800556 53.25356069876776 -3.564451410109858 2.5195563004810033 -5.435173458486148
lfemur -16.539662250520276 -2.7397441606474775 -17.072783046142767
ltibia 31.255827444398967
lfoot -8.822404685212728 0.08082938635391201
ltoes -17.95019318324216
rfemur -8.317247178073334 0.7736485691269903 28.786674180733208
rtibia 40.94866670115673
rfoot -4.3665548382713855 -10.947588161210646
rtoes 3.845488564976482
lowerback 10.017724067100406 -0.06466865762124599 2.7826798775022583
upperback -0.4021407704645074 1.057504026566915 1.8299222693012678
thorax -5.964349515251616 0.5691410255435071 -0.30199554362232917
lowerneck -16.128056224533644 -3.945293122295989 -1.6614417339081757
upperneck 21.762623797741718 -5.576788704995971 1.7867057741084338
head 9.768269523492235 -2.4812273837491254 0.1354970776853569
lclavicle -2.4890815758021973e-15 -2.730370903221645e-15
lhumerus -30.899873506224566 2.9441088689141535 82.42116017852912
lradius 26.31669674445699
lwrist 11.40283012049797
lhand -29.848080023637575 17.954617838563895
lfingers nan
lthumb -2.8911643663781974 48.41307883266244
rclavicle -2.601267947682561e-15 -2.8066109716404105e-15
rhumerus -29.080595860869092 -18.783673053374066 -75.14365068900425
rradius 33.34582960289688
rwrist 0.9265885570372809
rhand -17.49727314517835 22.41497269887941
rfingers nan
rthumb 8.68292338882576 -7.431768197933833
92
root 1.4319562784938666 17.951880759901936 53.68644244311968 -3.5817602406419797 2.744717941437865 -4.961149328515603
lfemur -15.173955847343109 -2.9522302246776504 -18.109076964097877
ltibia 27.35079656253037
lfoot -8.435126635340623 -1.37977402493797
ltoes -16.836358883025362
rfemur -9.62154925788578 0.41140599436055814 28.16152377283038
rtibia 43.79152942171555
rfoot -4.147547720347088 -11.253924471926146
rtoes 5.531565915028658
lowerback 9.991035955954585 -0.13699146238341783 2.3639243230438884
upperback -0.41425819332968716 0.8638981670542407 1.7848910976743217
thorax -5.98139440639847 0.47632721509713977 -0.179748813338501
lowerneck -16.189189564523733 -3.9474925426921574 -1.6824128050039497
upperneck 21.687729566828196 -5.590316543630358 1.962998495777112
head 9.742740985402381 -2.477014235144864 0.199937694182761
lclavicle -2.493095727781407e-15 -2.7326460565123693e-15
lhumerus -30.410339557689245 2.4932727328017386 82.25524397957902
lradius 26.778206461512735
lwrist 10.995068878610844
lhand -29.899242950012027 17.74970157474163
lfingers nan
lthumb -2.833916699050334 48.433658695197344
rclavicle -2.598308759950542e-15 -2.805096503646616e-15
rhumerus -29.470375910752455 -18.7205250923976 -75.53644909565685
rradius 33.36245746062712
rwrist 1.5620552270442127
rhand -17.479092109117776 22.538210926147954
rfingers nan
rthumb 8.707076235988438 -7.248579185500475
93
root 1.4280203095730242 17.953416805315445 54.401321597656846 -3.6770802845846653 3.05226435455132 -4.044953498315291
lfemur -13.400767759536791 -3.2240082158909456 -19.596139224204997
ltibia 24.969868138355213
lfoot -7.727650780104829 -1.8666273676732867
ltoes -16.499021900721235
rfemur -10.757788177874001 -0.25511803753153295 27.010213393760523
rtibia 46.41424884552887
rfoot -4.2950184952647845 -11.166961485851024
rtoes 6.7893418425419645
lowerback 9.988800269433439 -0.281373491849231 1.605676297796556
upperback -0.38810420808103974 0.48697175974838686 1.6696610490269166
thorax -6.002594464970941 0.28036414992504877 0.09813512358121934
lowerneck -16.26953310967177 -3.941477965778069 -1.6747346847537523
upperneck 21.57816738844055 -5.591445025178303 2.1241082997453717
head 9.707540277493054 -2.4673630489760843 0.25922472192555013
lclavicle -2.4990104909014044e-15 -2.735441780755264e-15
lhumerus -29.936831439505365 2.093299921692698 82.09214565574527
lradius 27.175896163105328
lwrist 10.488743143604166
lhand -29.753217769651794 18.038857431196316
lfingers nan
lthumb -2.7812510424615704 48.44735622107382
rclavicle -2.5983658271171903e-15 -2.8038072634748035e-15
rhumerus -29.83434364660569 -18.727740889879556 -75.93008654288401
rradius 33.29477738010383
rwrist 2.390852602748323
rhand -17.495132747934502 22.623921314546834
rfingers nan
rthumb 8.705073509073555 -7.108935842838127
94
root 1.4200890144483456 17.944198889680035 54.42932521303491 -3.854280906530305 3.25881028622935 -2.9477217918990384
lfemur -11.30234304925579 -3.5006089851247033 -21.158521323462296
ltibia 23.9693590717902
lfoot -8.084539641921873 -3.145105548286834
ltoes -14.795982410397425
rfemur -12.10402608819011 -0.9921538301688533 25.560531746687
rtibia 48.898200145049785
rfoot -4.752000664515808 -10.699001420695167
rtoes 7.5018969667767
lowerback 10.014667378752149 -0.4669523387778114 0.6799326638926503
upperback -0.3331733340544096 0.0187982316155057 1.5202247312228234
thorax -6.011474107580771 0.05041599613045933 0.5203021344791757
lowerneck -16.36243730534633 -3.92823344633184 -1.6527326783165086
upperneck 21.460082808891478 -5.578198481709853 2.2581221364822137
head 9.677113973985065 -2.4523893212477654 0.3088480460970894
lclavicle -2.5058850267331293e-15 -2.738275170460729e-15
lhumerus -29.487845685395513 1.6981530073853857 81.9441178898217
lradius 27.50373966121176
lwrist 9.860611712851782
lhand -29.781724271804798 17.893708855806437
lfingers nan
lthumb -2.732719499982963 48.487655716765225
rclavicle -2.602186950616774e-15 -2.803345816505699e-15
rhumerus -30.195798264047284 -18.84679057243099 -76.30935814258218
rradius 33.15714997143108
rwrist 3.1378410674696644
rhand -17.51710353313841 22.63416964288027
rfingers nan
rthumb 8.697161483524429 -7.062606865710006
95
root 1.4321211706150843 17.934256956598663 55.61592921268778 -3.938754745017153 3.5182133616565743 -1.6428260005086195
lfemur -9.112854460240793 -3.836522969817818 -22.83601760647059
ltibia 23.970455917382417
lfoot -8.476432347366458 -3.3198804898586265
ltoes -13.701077027508127
rfemur -14.13124137842109 -1.7266538775832023 23.783332785226243
rtibia 51.43341687226894
rfoot -5.455434157227122 -10.020527818328167
rtoes 7.647394614218522
lowerback 10.056595415563946 -0.7132504358421461 -0.39686383383944124
upperback -0.2805135427455597 -0.5570034320586374 1.3419173962007238
thorax -6.025853502676259 -0.22846592226779153 1.0500096550032918
lowerneck -16.468906342041112 -3.904047887611129 -1.6256120477106375
upperneck 21.34849078455026 -5.542934995608544 2.350928010632492
head 9.657970839271206 -2.430817544719672 0.3457945934889095
lclavicle -2.5137510101076114e-15 -2.7412074243451006e-15
lhumerus -29.066988571787988 1.2865294094227129 81.79931761682373
lradius 27.77113991613766
lwrist 9.177170569934612
lhand -29.65514809094881 18.18984840166636
lfingers nan
lthumb -2.6888028370305577 48.57408384952045
rclavicle -2.6077759284467513e-15 -2.802592564027833e-15
rhumerus -30.571306994025765 -19.06051720390123 -76.66891895958508
rradius 32.99016292710373
rwrist 3.344100305161875
rhand -17.5432957011989 22.547224638216598
rfingers nan
rthumb 8.678672114762024 -7.153964114021073
96
root 1.4477385402871898 17.922375093585565 56.63432078528192 -3.9507240424917054 3.643928913569642 -0.4204403963273404
lfemur -6.894552253243036 -4.174049136755339 -24.37279910951535
ltibia 24.445745628995432
lfoot -9.352036920844562 -3.362850583420661
ltoes -12.762145693284042
rfemur -16.72575221298819 -2.338490326645678 22.170747567391675
rtibia 53.79700431187791
rfoot -6.2627584613954745 -9.244835071648561
rtoes 7.335457556920876
lowerback 10.123787678479653 -0.9629989586685103 -1.4302390152609694
upperback -0.23711255500429962 -1.1272037614369108 1.1662632525615275
thorax -6.03355370088973 -0.497798281371855 1.6248703102398758
lowerneck -16.592845909078292 -3.8620506501533445 -1.6011294289274565
upperneck 21.25395663663225 -5.4738575758598955 2.390177627530167
head 9.649554182970624 -2.3998423035489083 0.3694999561387178
lclavicle -2.522499990031201e-15 -2.7442802225613415e-15
lhumerus -28.727103420027976 0.8470626983666403 81.63631726355115
lradius 27.97585027291475
lwrist 8.605180698972685
lhand -29.6794066671758 18.162687487097916
lfingers nan
lthumb -2.636634602826207 48.738487038974625
rclavicle -2.6145273573649864e-15 -2.801458041495325e-15
rhumerus -30.937326637589365 -19.29310266238212 -76.95977566337366
rradius 32.826901141145996
rwrist 2.718460845912722
rhand -17.550585404051695 22.441377110858685
rfingers nan
rthumb 8.661980532971 -7.313226044921517
